<?xml version="1.0" standalone="no"?>
<!DOCTYPE svg PUBLIC "-//W3C//DTD SVG 20010904//EN"
 "http://www.w3.org/TR/2001/REC-SVG-20010904/DTD/svg10.dtd">
<svg version="1.0" xmlns="http://www.w3.org/2000/svg"
 width="1024.000000pt" height="1024.000000pt" viewBox="0 0 1024.000000 1024.000000"
 preserveAspectRatio="xMidYMid meet">
<metadata>
Created by potrace 1.14, written by Peter Selinger 2001-2017
</metadata>
<g transform="translate(0.000000,1024.000000) scale(0.100000,-0.100000)"
fill="#000000" stroke="none">
<path d="M4840 9959 c-1227 -60 -2389 -506 -3220 -1236 -588 -517 -1003 -1140
-1260 -1891 -311 -908 -354 -2060 -114 -3042 313 -1278 1112 -2290 2297 -2910
1166 -610 2629 -776 3957 -449 1223 301 2235 985 2875 1944 412 616 655 1298
745 2087 75 655 35 1347 -114 1953 -255 1037 -822 1905 -1651 2527 -718 539
-1604 879 -2570 987 -318 36 -628 46 -945 30z m-1239 -2309 c293 -55 516 -418
591 -960 17 -126 17 -545 -1 -670 -52 -382 -165 -655 -338 -821 -163 -156
-320 -188 -502 -101 -75 35 -205 165 -260 259 -269 456 -307 1277 -85 1823
102 252 279 435 454 469 63 12 80 12 141 1z m3241 -1 c226 -48 412 -312 508
-719 39 -170 54 -323 54 -575 0 -269 -15 -414 -65 -618 -153 -626 -551 -871
-866 -533 -187 200 -298 541 -322 985 -31 580 97 1089 333 1327 71 71 130 108
206 128 68 18 86 19 152 5z m1255 -3035 c-3 -3 -12 -4 -19 -1 -8 3 -5 6 6 6
11 1 17 -2 13 -5z m-5712 -258 c718 -200 1314 -301 2100 -358 219 -15 1006
-16 1235 0 737 51 1394 161 2040 343 228 64 295 69 382 26 81 -40 143 -113
171 -202 38 -122 25 -369 -33 -638 -24 -109 -24 -105 -4 -81 9 10 6 1 -7 -21
-212 -374 -495 -703 -824 -958 -548 -425 -1224 -679 -1992 -747 -179 -17 -697
-8 -861 14 -950 127 -1739 530 -2291 1171 -148 172 -349 463 -356 517 -1 13
-14 80 -28 149 -51 246 -60 505 -23 607 46 128 167 219 291 221 23 1 113 -19
200 -43z m-678 -108 c-3 -8 -6 -5 -6 6 -1 11 2 17 5 13 3 -3 4 -12 1 -19z
m-10 -55 c-3 -10 -5 -4 -5 12 0 17 2 24 5 18 2 -7 2 -21 0 -30z m2880 21 c-3
-3 -12 -4 -19 -1 -8 3 -5 6 6 6 11 1 17 -2 13 -5z m1070 0 c-3 -3 -12 -4 -19
-1 -8 3 -5 6 6 6 11 1 17 -2 13 -5z m-769 -11 c-10 -2 -26 -2 -35 0 -10 3 -2
5 17 5 19 0 27 -2 18 -5z m490 0 c-10 -2 -26 -2 -35 0 -10 3 -2 5 17 5 19 0
27 -2 18 -5z m-3671 -180 c-3 -10 -5 -4 -5 12 0 17 2 24 5 18 2 -7 2 -21 0
-30z m10 -55 c-3 -7 -5 -2 -5 12 0 14 2 19 5 13 2 -7 2 -19 0 -25z m10 -40
c-3 -8 -6 -5 -6 6 -1 11 2 17 5 13 3 -3 4 -12 1 -19z m102 -263 c0 -5 -6 1
-14 15 -8 14 -14 30 -14 35 0 6 6 -1 14 -15 8 -14 14 -29 14 -35z m111 -215
c6 -11 8 -20 6 -20 -3 0 -10 9 -16 20 -6 11 -8 20 -6 20 3 0 10 -9 16 -20z"/>
</g>
</svg>
